<svg xmlns="http://www.w3.org/2000/svg" width="24" height="25" viewBox="0 0 24 25">
    <g fill="none" fill-rule="evenodd">
        <g fill="#A37730">
            <g>
                <g>
                    <path d="M10.093 21.639c.478.087.975.136 1.473.156v1.814c-.664-.01-1.317-.078-1.951-.205zM12.512.129C18.687.48 23.574 5.6 23.574 11.864c0 6.263-4.887 11.375-11.062 11.726v-1.815c5.16-.36 9.238-4.662 9.238-9.91 0-5.259-4.078-9.56-9.238-9.922zm-4.78 20.798c.458.204.936.38 1.434.507L8.688 23.2c-.644-.176-1.268-.41-1.863-.693zm-2.126-1.298c.4.312.828.605 1.277.868l-.907 1.57c-.595-.33-1.15-.72-1.668-1.14zM3.84 17.805c.322.43.673.829 1.053 1.19l-1.287 1.288c-.498-.468-.947-.995-1.356-1.56zM2.58 15.542c.195.517.44 1.005.722 1.473l-1.57.907c-.371-.605-.683-1.239-.927-1.902zm13.601-7.865c.344-.344.904-.345 1.249 0 .342.344.342.903 0 1.246l-7.024 7.023c-.172.172-.398.258-.623.258-.227 0-.453-.086-.624-.258l-3.061-3.061c-.344-.344-.344-.903 0-1.247.343-.344.903-.344 1.246 0l2.439 2.438zM1.938 12.996c.058.565.175 1.122.331 1.648l-1.765.478c-.195-.682-.332-1.395-.4-2.126zM.22 9.845l1.775.468v.01c-.088.507-.127 1.014-.127 1.541v.186H.055c-.01-.059-.01-.127-.01-.186 0-.692.058-1.366.176-2.02zM1.186 6.8l1.58.917c-.243.537-.438 1.093-.584 1.678L.416 8.918c.195-.741.448-1.443.77-2.117zM2.962 4.12L4.25 5.406c-.39.459-.742.947-1.044 1.473l-1.57-.907c.37-.663.819-1.287 1.326-1.853zM5.41 1.992l.917 1.58c-.507.332-.985.712-1.424 1.142L3.615 3.426c.547-.536 1.151-1.014 1.795-1.434zM8.356.617l.478 1.765c-.595.176-1.16.42-1.697.703l-.907-1.57C6.903 1.142 7.615.84 8.356.616zm3.21-.508v1.815c-.615.02-1.23.088-1.815.215L9.273.373c.742-.166 1.503-.254 2.293-.264z" transform="translate(-1665 -67) translate(353 53.701) translate(1312.055 14.14)"/>
                </g>
            </g>
        </g>
    </g>
</svg>
